<svg width="86" height="79" viewBox="0 0 86 79" fill="none" xmlns="http://www.w3.org/2000/svg">
<path d="M4 65.4491C4 65.4491 4 30.037 4 28.501C4 26.9649 13.551 22.1492 14.3295 21.5818C15.108 21.0145 14.3295 61.5882 14.3295 65.4491C14.3295 69.31 25.4965 71.538 25.4965 69.3238C25.4965 67.1097 25.4965 12.6838 25.4965 10.9264C25.4965 9.16894 35.0408 4.79602 36.6635 4.00724C38.2862 3.21846 36.6635 67.1094 36.6635 69.3238C36.6635 71.5382 39.8255 75.108 43.2241 74.9975C46.5014 74.8909 49.366 71.538 49.366 69.3238C49.366 67.1097 47.7728 3.21849 49.366 4.00724C50.9592 4.796 58.9184 9.52869 60.5183 10.9264C62.1181 12.3241 60.5183 66.0167 60.5183 69.3238C60.5183 72.6309 71.6531 67.1094 71.6531 65.4491C71.6531 63.7888 70.8571 21.0145 71.6531 21.5818C72.449 22.1492 82 26.9649 82 28.501C82 30.037 82 65.4491 82 65.4491" stroke="#EF6593" stroke-width="8" stroke-linecap="round"/>
</svg>
