<svg width="292" height="41" viewBox="0 0 292 41" fill="none" xmlns="http://www.w3.org/2000/svg">
<path d="M13.3047 20.625H23.1016C24.7109 20.625 26.0703 20.0859 27.1797 19.0078C28.3047 17.9141 28.8672 16.375 28.8672 14.3906C28.8672 12.9062 28.2812 11.5781 27.1094 10.4062C25.9375 9.21875 24.6016 8.625 23.1016 8.625H8.61719V39H6.92969V6.9375H23.1016C25.0703 6.9375 26.8047 7.69531 28.3047 9.21094C29.8047 10.7266 30.5547 12.4531 30.5547 14.3906C30.5547 16.7812 29.8281 18.7031 28.375 20.1562C26.9219 21.5938 25.1641 22.3125 23.1016 22.3125H13.3047V20.625ZM13.3047 24H23.1016C24.7266 24 26.2266 23.6094 27.6016 22.8281C28.9922 22.0312 30.1094 20.8906 30.9531 19.4062C31.8125 17.9219 32.2422 16.25 32.2422 14.3906C32.2422 11.9844 31.3203 9.85938 29.4766 8.01562C27.6484 6.17188 25.5234 5.25 23.1016 5.25H5.24219V39H3.55469V3.5625H23.1016C24.9922 3.5625 26.7734 4.0625 28.4453 5.0625C30.1172 6.0625 31.4453 7.39844 32.4297 9.07031C33.4297 10.7422 33.9297 12.5156 33.9297 14.3906C33.9297 16.5156 33.4297 18.4531 32.4297 20.2031C31.4297 21.9375 30.1016 23.2891 28.4453 24.2578C26.8047 25.2109 25.0234 25.6875 23.1016 25.6875H13.3047V24ZM13.3047 27.375H23.1016C24.7734 27.375 26.375 27.0469 27.9062 26.3906C29.4375 25.7188 30.7656 24.8203 31.8906 23.6953C33.0312 22.5547 33.9375 21.1797 34.6094 19.5703C35.2812 17.9453 35.6172 16.2188 35.6172 14.3906C35.6172 12.2031 35.0469 10.1484 33.9062 8.22656C32.7656 6.28906 31.2266 4.75 29.2891 3.60938C27.3672 2.45312 25.3047 1.875 23.1016 1.875H1.86719V39H0.179688V0.1875H23.1016C25.6016 0.1875 27.9453 0.84375 30.1328 2.15625C32.3203 3.45312 34.0625 5.19531 35.3594 7.38281C36.6562 9.57031 37.3047 11.9062 37.3047 14.3906C37.3047 16.6094 36.9219 18.6562 36.1562 20.5312C35.3906 22.3906 34.3594 23.9375 33.0625 25.1719C31.7656 26.4062 30.2578 27.3672 28.5391 28.0547C26.8203 28.7266 25.0078 29.0625 23.1016 29.0625H13.3047V27.375ZM11.9922 39H10.3047V10.3125H23.1016C24.2109 10.3125 25.1641 10.7188 25.9609 11.5312C26.7734 12.3438 27.1797 13.2969 27.1797 14.3906C27.1797 17.4219 25.8203 18.9375 23.1016 18.9375H13.3047V17.25H23.1016C23.8516 17.25 24.4375 17.0391 24.8594 16.6172C25.2812 16.1953 25.4922 15.4531 25.4922 14.3906C25.4922 13.7031 25.2578 13.1328 24.7891 12.6797C24.3359 12.2266 23.7734 12 23.1016 12H11.9922V39ZM53.8984 17.3672C52.5859 18.6797 51.9297 20.2656 51.9297 22.125C51.9297 23.9844 52.5859 25.5781 53.8984 26.9062C55.2266 28.2188 56.8203 28.875 58.6797 28.875C60.5391 28.875 62.125 28.2188 63.4375 26.9062C64.7656 25.5781 65.4297 23.9844 65.4297 22.125C65.4297 20.2656 64.7656 18.6797 63.4375 17.3672C62.125 16.0391 60.5391 15.375 58.6797 15.375C56.8203 15.375 55.2266 16.0391 53.8984 17.3672ZM52.7031 28.1016C51.0625 26.4453 50.2422 24.4531 50.2422 22.125C50.2422 19.7969 51.0625 17.8125 52.7031 16.1719C54.3594 14.5156 56.3516 13.6875 58.6797 13.6875C61.0078 13.6875 62.9922 14.5156 64.6328 16.1719C66.2891 17.8125 67.1172 19.7969 67.1172 22.125C67.1172 24.4531 66.2891 26.4453 64.6328 28.1016C62.9922 29.7422 61.0078 30.5625 58.6797 30.5625C56.3516 30.5625 54.3594 29.7422 52.7031 28.1016ZM51.5078 14.9766C49.5391 16.9609 48.5547 19.3438 48.5547 22.125C48.5547 24.9062 49.5391 27.2891 51.5078 29.2734C53.4922 31.2578 55.8828 32.25 58.6797 32.25C61.4766 32.25 63.8594 31.2578 65.8281 29.2734C67.8125 27.2891 68.8047 24.9062 68.8047 22.125C68.8047 19.3438 67.8125 16.9609 65.8281 14.9766C63.8594 12.9922 61.4766 12 58.6797 12C55.8828 12 53.4922 12.9922 51.5078 14.9766ZM48.4375 28.0547C47.3906 26.2422 46.8672 24.2656 46.8672 22.125C46.8672 19.9844 47.3906 18.0078 48.4375 16.1953C49.5 14.3828 50.9375 12.9531 52.75 11.9062C54.5625 10.8438 56.5391 10.3125 58.6797 10.3125C60.8203 10.3125 62.7969 10.8438 64.6094 11.9062C66.4219 12.9531 67.8516 14.3828 68.8984 16.1953C69.9609 18.0078 70.4922 19.9844 70.4922 22.125C70.4922 24.2656 69.9609 26.2422 68.8984 28.0547C67.8516 29.8672 66.4219 31.3047 64.6094 32.3672C62.7969 33.4141 60.8203 33.9375 58.6797 33.9375C56.5391 33.9375 54.5625 33.4141 52.75 32.3672C50.9375 31.3047 49.5 29.8672 48.4375 28.0547ZM46.2344 16.8984C45.5312 18.5547 45.1797 20.2969 45.1797 22.125C45.1797 23.9531 45.5312 25.7031 46.2344 27.375C46.9531 29.0312 47.9141 30.4688 49.1172 31.6875C50.3359 32.8906 51.7734 33.8516 53.4297 34.5703C55.1016 35.2734 56.8516 35.625 58.6797 35.625C60.5078 35.625 62.25 35.2734 63.9062 34.5703C65.5781 33.8516 67.0156 32.8906 68.2188 31.6875C69.4375 30.4688 70.3984 29.0312 71.1016 27.375C71.8203 25.7031 72.1797 23.9531 72.1797 22.125C72.1797 20.2969 71.8203 18.5547 71.1016 16.8984C70.3984 15.2266 69.4375 13.7891 68.2188 12.5859C67.0156 11.3672 65.5781 10.4062 63.9062 9.70312C62.25 8.98438 60.5078 8.625 58.6797 8.625C56.8516 8.625 55.1016 8.98438 53.4297 9.70312C51.7734 10.4062 50.3359 11.3672 49.1172 12.5859C47.9141 13.7891 46.9531 15.2266 46.2344 16.8984ZM44.6875 28.0312C43.8906 26.1562 43.4922 24.1875 43.4922 22.125C43.4922 20.0625 43.8906 18.0938 44.6875 16.2188C45.5 14.3438 46.5781 12.7344 47.9219 11.3906C49.2812 10.0312 50.8984 8.95312 52.7734 8.15625C54.6484 7.34375 56.6172 6.9375 58.6797 6.9375C60.7422 6.9375 62.7109 7.34375 64.5859 8.15625C66.4609 8.95312 68.0703 10.0312 69.4141 11.3906C70.7734 12.7344 71.8516 14.3438 72.6484 16.2188C73.4609 18.0938 73.8672 20.0625 73.8672 22.125C73.8672 24.1875 73.4609 26.1562 72.6484 28.0312C71.8516 29.9062 70.7734 31.5234 69.4141 32.8828C68.0703 34.2266 66.4609 35.3047 64.5859 36.1172C62.7109 36.9141 60.7422 37.3125 58.6797 37.3125C56.6172 37.3125 54.6484 36.9141 52.7734 36.1172C50.8984 35.3047 49.2812 34.2266 47.9219 32.8828C46.5781 31.5234 45.5 29.9062 44.6875 28.0312ZM43.1406 15.5859C42.25 17.6641 41.8047 19.8438 41.8047 22.125C41.8047 24.4062 42.25 26.5938 43.1406 28.6875C44.0312 30.7656 45.2266 32.5625 46.7266 34.0781C48.2422 35.5781 50.0391 36.7734 52.1172 37.6641C54.2109 38.5547 56.3984 39 58.6797 39C60.9609 39 63.1406 38.5547 65.2188 37.6641C67.3125 36.7734 69.1094 35.5781 70.6094 34.0781C72.125 32.5625 73.3281 30.7656 74.2188 28.6875C75.1094 26.5938 75.5547 24.4062 75.5547 22.125C75.5547 19.8438 75.1094 17.6641 74.2188 15.5859C73.3281 13.4922 72.125 11.6953 70.6094 10.1953C69.1094 8.67969 67.3125 7.47656 65.2188 6.58594C63.1406 5.69531 60.9609 5.25 58.6797 5.25C56.3984 5.25 54.2109 5.69531 52.1172 6.58594C50.0391 7.47656 48.2422 8.67969 46.7266 10.1953C45.2266 11.6953 44.0312 13.4922 43.1406 15.5859ZM41.5938 29.3438C40.6094 27.0469 40.1172 24.6406 40.1172 22.125C40.1172 19.6094 40.6094 17.2109 41.5938 14.9297C42.5781 12.6328 43.8984 10.6562 45.5547 9C47.2109 7.34375 49.1797 6.02344 51.4609 5.03906C53.7578 4.05469 56.1641 3.5625 58.6797 3.5625C61.1953 3.5625 63.5938 4.05469 65.875 5.03906C68.1719 6.02344 70.1484 7.34375 71.8047 9C73.4609 10.6562 74.7812 12.6328 75.7656 14.9297C76.75 17.2109 77.2422 19.6094 77.2422 22.125C77.2422 24.6406 76.75 27.0469 75.7656 29.3438C74.7812 31.625 73.4609 33.5938 71.8047 35.25C70.1484 36.9062 68.1719 38.2266 65.875 39.2109C63.5938 40.1953 61.1953 40.6875 58.6797 40.6875C56.1641 40.6875 53.7578 40.1953 51.4609 39.2109C49.1797 38.2266 47.2109 36.9062 45.5547 35.25C43.8984 33.5938 42.5781 31.625 41.5938 29.3438ZM96.5547 22.9453H93.8828C90.6016 22.9453 88.0781 22.2812 86.3125 20.9531C84.5469 19.6094 83.6641 17.7656 83.6641 15.4219C83.6641 13.2344 84.7031 11.4141 86.7812 9.96094C88.8594 8.49219 91.7734 7.75781 95.5234 7.75781C98.0234 7.75781 100.352 8.10156 102.508 8.78906C104.68 9.47656 106.484 10.4453 107.922 11.6953L106.609 12.75C105.328 11.7031 103.719 10.8906 101.781 10.3125C99.8438 9.73438 97.7578 9.44531 95.5234 9.44531C92.2266 9.44531 89.7031 10.0078 87.9531 11.1328C86.2188 12.2578 85.3516 13.6875 85.3516 15.4219C85.3516 17.2969 86.0625 18.7422 87.4844 19.7578C88.9219 20.7578 91.0547 21.2578 93.8828 21.2578H96.4609C99.7891 21.2578 102.336 21.9297 104.102 23.2734C105.883 24.6016 106.773 26.4375 106.773 28.7812C106.773 30.9688 105.734 32.7969 103.656 34.2656C101.578 35.7188 98.6641 36.4453 94.9141 36.4453C92.4141 36.4453 90.0781 36.1016 87.9062 35.4141C85.75 34.7266 83.9531 33.7578 82.5156 32.5078L83.8281 31.4531C85.1094 32.5 86.7188 33.3125 88.6562 33.8906C90.5938 34.4688 92.6797 34.7578 94.9141 34.7578C98.2109 34.7578 100.727 34.1953 102.461 33.0703C104.211 31.9453 105.086 30.5156 105.086 28.7812C105.086 26.9062 104.367 25.4688 102.93 24.4688C101.508 23.4531 99.3828 22.9453 96.5547 22.9453ZM96.5547 26.3203H93.8828C89.5391 26.3203 86.1875 25.3359 83.8281 23.3672C81.4688 21.3828 80.2891 18.7344 80.2891 15.4219C80.2891 13.9062 80.625 12.4844 81.2969 11.1562C81.9688 9.82812 82.9297 8.66406 84.1797 7.66406C85.4453 6.64844 87.0547 5.85156 89.0078 5.27344C90.9609 4.67969 93.1328 4.38281 95.5234 4.38281C98.5391 4.38281 101.359 4.84375 103.984 5.76562C106.609 6.67188 108.797 7.94531 110.547 9.58594L109.188 10.5938C107.594 9.15625 105.602 8.04688 103.211 7.26562C100.82 6.46875 98.2578 6.07031 95.5234 6.07031C91.3047 6.07031 87.9922 6.96094 85.5859 8.74219C83.1797 10.5234 81.9766 12.75 81.9766 15.4219C81.9766 18.25 83.0078 20.4922 85.0703 22.1484C87.1328 23.8047 90.0703 24.6328 93.8828 24.6328H96.4609C101.086 24.6328 103.398 26.0156 103.398 28.7812C103.398 30.0312 102.688 31.0625 101.266 31.875C99.8594 32.6719 97.7422 33.0703 94.9141 33.0703C92.9297 33.0703 91.0859 32.8438 89.3828 32.3906C87.6797 31.9219 86.2734 31.2578 85.1641 30.3984L86.5 29.3672C88.4531 30.7109 91.2578 31.3828 94.9141 31.3828C97.2578 31.3828 98.9766 31.1406 100.07 30.6562C101.164 30.1719 101.711 29.5469 101.711 28.7812C101.711 27.8906 101.328 27.2578 100.562 26.8828C99.7969 26.5078 98.4609 26.3203 96.5547 26.3203ZM96.5547 19.5703H93.8828C89.3203 19.5703 87.0391 18.1875 87.0391 15.4219C87.0391 14.1719 87.7422 13.1484 89.1484 12.3516C90.5703 11.5391 92.6953 11.1328 95.5234 11.1328C97.5078 11.1328 99.3516 11.3672 101.055 11.8359C102.758 12.2891 104.164 12.9453 105.273 13.8047L103.938 14.8359C101.984 13.4922 99.1797 12.8203 95.5234 12.8203C93.1797 12.8203 91.4609 13.0625 90.3672 13.5469C89.2734 14.0312 88.7266 14.6562 88.7266 15.4219C88.7266 16.3125 89.1094 16.9453 89.875 17.3203C90.6406 17.6953 91.9766 17.8828 93.8828 17.8828H96.5547C100.898 17.8828 104.25 18.875 106.609 20.8594C108.969 22.8281 110.148 25.4688 110.148 28.7812C110.148 30.2969 109.812 31.7188 109.141 33.0469C108.469 34.375 107.5 35.5469 106.234 36.5625C104.984 37.5625 103.383 38.3594 101.43 38.9531C99.4766 39.5312 97.3047 39.8203 94.9141 39.8203C91.8984 39.8203 89.0781 39.3672 86.4531 38.4609C83.8281 37.5391 81.6406 36.2578 79.8906 34.6172L81.25 33.6094C82.8438 35.0469 84.8359 36.1641 87.2266 36.9609C89.6172 37.7422 92.1797 38.1328 94.9141 38.1328C99.1328 38.1328 102.445 37.2422 104.852 35.4609C107.258 33.6797 108.461 31.4531 108.461 28.7812C108.461 25.9531 107.43 23.7109 105.367 22.0547C103.305 20.3984 100.367 19.5703 96.5547 19.5703ZM119.828 14.6016H121.516V39H119.828V14.6016ZM113.078 6.9375V5.25H138.391V6.9375H113.078ZM113.078 10.3125V8.625H138.391V10.3125H113.078ZM113.078 13.6875V12H138.391V13.6875H113.078ZM129.953 14.6016H131.641V39H129.953V14.6016ZM126.578 14.6016H128.266V39H126.578V14.6016ZM123.203 14.6016H124.891V39H123.203V14.6016ZM155.242 20.625H165.039C166.648 20.625 168.008 20.0859 169.117 19.0078C170.242 17.9141 170.805 16.375 170.805 14.3906C170.805 12.9062 170.219 11.5781 169.047 10.4062C167.875 9.21875 166.539 8.625 165.039 8.625H150.555V39H148.867V6.9375H165.039C167.008 6.9375 168.742 7.69531 170.242 9.21094C171.742 10.7266 172.492 12.4531 172.492 14.3906C172.492 16.7812 171.766 18.7031 170.312 20.1562C168.859 21.5938 167.102 22.3125 165.039 22.3125H155.242V20.625ZM155.242 24H165.039C166.664 24 168.164 23.6094 169.539 22.8281C170.93 22.0312 172.047 20.8906 172.891 19.4062C173.75 17.9219 174.18 16.25 174.18 14.3906C174.18 11.9844 173.258 9.85938 171.414 8.01562C169.586 6.17188 167.461 5.25 165.039 5.25H147.18V39H145.492V3.5625H165.039C166.93 3.5625 168.711 4.0625 170.383 5.0625C172.055 6.0625 173.383 7.39844 174.367 9.07031C175.367 10.7422 175.867 12.5156 175.867 14.3906C175.867 16.5156 175.367 18.4531 174.367 20.2031C173.367 21.9375 172.039 23.2891 170.383 24.2578C168.742 25.2109 166.961 25.6875 165.039 25.6875H155.242V24ZM155.242 27.375H165.039C166.711 27.375 168.312 27.0469 169.844 26.3906C171.375 25.7188 172.703 24.8203 173.828 23.6953C174.969 22.5547 175.875 21.1797 176.547 19.5703C177.219 17.9453 177.555 16.2188 177.555 14.3906C177.555 12.2031 176.984 10.1484 175.844 8.22656C174.703 6.28906 173.164 4.75 171.227 3.60938C169.305 2.45312 167.242 1.875 165.039 1.875H143.805V39H142.117V0.1875H165.039C167.539 0.1875 169.883 0.84375 172.07 2.15625C174.258 3.45312 176 5.19531 177.297 7.38281C178.594 9.57031 179.242 11.9062 179.242 14.3906C179.242 16.6094 178.859 18.6562 178.094 20.5312C177.328 22.3906 176.297 23.9375 175 25.1719C173.703 26.4062 172.195 27.3672 170.477 28.0547C168.758 28.7266 166.945 29.0625 165.039 29.0625H155.242V27.375ZM153.93 39H152.242V10.3125H165.039C166.148 10.3125 167.102 10.7188 167.898 11.5312C168.711 12.3438 169.117 13.2969 169.117 14.3906C169.117 17.4219 167.758 18.9375 165.039 18.9375H155.242V17.25H165.039C165.789 17.25 166.375 17.0391 166.797 16.6172C167.219 16.1953 167.43 15.4531 167.43 14.3906C167.43 13.7031 167.195 13.1328 166.727 12.6797C166.273 12.2266 165.711 12 165.039 12H153.93V39ZM193.07 5.25H194.758V39H193.07V5.25ZM189.695 5.25H191.383V39H189.695V5.25ZM186.32 5.25H188.008V39H186.32V5.25ZM182.945 5.25H184.633V39H182.945V5.25ZM199.164 5.25H200.852V39H199.164V5.25ZM209.289 5.25H210.977V30.5625H223.422V32.25H210.977V33.9375H223.422V35.625H210.977V37.3125H223.422V39H209.289V5.25ZM205.914 5.25H207.602V39H205.914V5.25ZM202.539 5.25H204.227V39H202.539V5.25ZM240.039 17.3672C238.727 18.6797 238.07 20.2656 238.07 22.125C238.07 23.9844 238.727 25.5781 240.039 26.9062C241.367 28.2188 242.961 28.875 244.82 28.875C246.68 28.875 248.266 28.2188 249.578 26.9062C250.906 25.5781 251.57 23.9844 251.57 22.125C251.57 20.2656 250.906 18.6797 249.578 17.3672C248.266 16.0391 246.68 15.375 244.82 15.375C242.961 15.375 241.367 16.0391 240.039 17.3672ZM238.844 28.1016C237.203 26.4453 236.383 24.4531 236.383 22.125C236.383 19.7969 237.203 17.8125 238.844 16.1719C240.5 14.5156 242.492 13.6875 244.82 13.6875C247.148 13.6875 249.133 14.5156 250.773 16.1719C252.43 17.8125 253.258 19.7969 253.258 22.125C253.258 24.4531 252.43 26.4453 250.773 28.1016C249.133 29.7422 247.148 30.5625 244.82 30.5625C242.492 30.5625 240.5 29.7422 238.844 28.1016ZM237.648 14.9766C235.68 16.9609 234.695 19.3438 234.695 22.125C234.695 24.9062 235.68 27.2891 237.648 29.2734C239.633 31.2578 242.023 32.25 244.82 32.25C247.617 32.25 250 31.2578 251.969 29.2734C253.953 27.2891 254.945 24.9062 254.945 22.125C254.945 19.3438 253.953 16.9609 251.969 14.9766C250 12.9922 247.617 12 244.82 12C242.023 12 239.633 12.9922 237.648 14.9766ZM234.578 28.0547C233.531 26.2422 233.008 24.2656 233.008 22.125C233.008 19.9844 233.531 18.0078 234.578 16.1953C235.641 14.3828 237.078 12.9531 238.891 11.9062C240.703 10.8438 242.68 10.3125 244.82 10.3125C246.961 10.3125 248.938 10.8438 250.75 11.9062C252.562 12.9531 253.992 14.3828 255.039 16.1953C256.102 18.0078 256.633 19.9844 256.633 22.125C256.633 24.2656 256.102 26.2422 255.039 28.0547C253.992 29.8672 252.562 31.3047 250.75 32.3672C248.938 33.4141 246.961 33.9375 244.82 33.9375C242.68 33.9375 240.703 33.4141 238.891 32.3672C237.078 31.3047 235.641 29.8672 234.578 28.0547ZM232.375 16.8984C231.672 18.5547 231.32 20.2969 231.32 22.125C231.32 23.9531 231.672 25.7031 232.375 27.375C233.094 29.0312 234.055 30.4688 235.258 31.6875C236.477 32.8906 237.914 33.8516 239.57 34.5703C241.242 35.2734 242.992 35.625 244.82 35.625C246.648 35.625 248.391 35.2734 250.047 34.5703C251.719 33.8516 253.156 32.8906 254.359 31.6875C255.578 30.4688 256.539 29.0312 257.242 27.375C257.961 25.7031 258.32 23.9531 258.32 22.125C258.32 20.2969 257.961 18.5547 257.242 16.8984C256.539 15.2266 255.578 13.7891 254.359 12.5859C253.156 11.3672 251.719 10.4062 250.047 9.70312C248.391 8.98438 246.648 8.625 244.82 8.625C242.992 8.625 241.242 8.98438 239.57 9.70312C237.914 10.4062 236.477 11.3672 235.258 12.5859C234.055 13.7891 233.094 15.2266 232.375 16.8984ZM230.828 28.0312C230.031 26.1562 229.633 24.1875 229.633 22.125C229.633 20.0625 230.031 18.0938 230.828 16.2188C231.641 14.3438 232.719 12.7344 234.062 11.3906C235.422 10.0312 237.039 8.95312 238.914 8.15625C240.789 7.34375 242.758 6.9375 244.82 6.9375C246.883 6.9375 248.852 7.34375 250.727 8.15625C252.602 8.95312 254.211 10.0312 255.555 11.3906C256.914 12.7344 257.992 14.3438 258.789 16.2188C259.602 18.0938 260.008 20.0625 260.008 22.125C260.008 24.1875 259.602 26.1562 258.789 28.0312C257.992 29.9062 256.914 31.5234 255.555 32.8828C254.211 34.2266 252.602 35.3047 250.727 36.1172C248.852 36.9141 246.883 37.3125 244.82 37.3125C242.758 37.3125 240.789 36.9141 238.914 36.1172C237.039 35.3047 235.422 34.2266 234.062 32.8828C232.719 31.5234 231.641 29.9062 230.828 28.0312ZM229.281 15.5859C228.391 17.6641 227.945 19.8438 227.945 22.125C227.945 24.4062 228.391 26.5938 229.281 28.6875C230.172 30.7656 231.367 32.5625 232.867 34.0781C234.383 35.5781 236.18 36.7734 238.258 37.6641C240.352 38.5547 242.539 39 244.82 39C247.102 39 249.281 38.5547 251.359 37.6641C253.453 36.7734 255.25 35.5781 256.75 34.0781C258.266 32.5625 259.469 30.7656 260.359 28.6875C261.25 26.5938 261.695 24.4062 261.695 22.125C261.695 19.8438 261.25 17.6641 260.359 15.5859C259.469 13.4922 258.266 11.6953 256.75 10.1953C255.25 8.67969 253.453 7.47656 251.359 6.58594C249.281 5.69531 247.102 5.25 244.82 5.25C242.539 5.25 240.352 5.69531 238.258 6.58594C236.18 7.47656 234.383 8.67969 232.867 10.1953C231.367 11.6953 230.172 13.4922 229.281 15.5859ZM227.734 29.3438C226.75 27.0469 226.258 24.6406 226.258 22.125C226.258 19.6094 226.75 17.2109 227.734 14.9297C228.719 12.6328 230.039 10.6562 231.695 9C233.352 7.34375 235.32 6.02344 237.602 5.03906C239.898 4.05469 242.305 3.5625 244.82 3.5625C247.336 3.5625 249.734 4.05469 252.016 5.03906C254.312 6.02344 256.289 7.34375 257.945 9C259.602 10.6562 260.922 12.6328 261.906 14.9297C262.891 17.2109 263.383 19.6094 263.383 22.125C263.383 24.6406 262.891 27.0469 261.906 29.3438C260.922 31.625 259.602 33.5938 257.945 35.25C256.289 36.9062 254.312 38.2266 252.016 39.2109C249.734 40.1953 247.336 40.6875 244.82 40.6875C242.305 40.6875 239.898 40.1953 237.602 39.2109C235.32 38.2266 233.352 36.9062 231.695 35.25C230.039 33.5938 228.719 31.625 227.734 29.3438ZM273.156 14.6016H274.844V39H273.156V14.6016ZM266.406 6.9375V5.25H291.719V6.9375H266.406ZM266.406 10.3125V8.625H291.719V10.3125H266.406ZM266.406 13.6875V12H291.719V13.6875H266.406ZM283.281 14.6016H284.969V39H283.281V14.6016ZM279.906 14.6016H281.594V39H279.906V14.6016ZM276.531 14.6016H278.219V39H276.531V14.6016Z" fill="#1E1E1E"/>
</svg>
